<svg width="138" height="61" viewBox="0 0 138 61" fill="none" xmlns="http://www.w3.org/2000/svg">
<path d="M3 58V23H35.7262V29.3423H12.9462V38.2215H32.5178V44.5638H12.9462V58H3Z" fill="#FEAE44"/>
<path d="M40.6617 58V23H50.6079V51.6577H70.8212V58H40.6617Z" fill="#FEAE44"/>
<path d="M75.7542 58V23H85.7004V58H75.7542Z" fill="#FEAE44"/>
<path d="M90.6484 58L106.306 40.4765L90.6484 23H102.071L114.648 37H109.065L121.578 23H133L117.407 40.4765L133 58H121.578L109.065 43.953L114.648 44L102.071 58H90.6484Z" fill="#FEAE44"/>
<path d="M2.98 19V4.1H7.86C8.79333 4.1 9.61333 4.28667 10.32 4.66C11.0267 5.03333 11.58 5.56 11.98 6.24C12.38 6.90667 12.58 7.68 12.58 8.56C12.58 9.64 12.28 10.56 11.68 11.32C11.08 12.08 10.2733 12.5867 9.26 12.84L12.82 19H11.64L7.86 12.38L8.94 13H3.98V19H2.98ZM3.98 12.1H7.86C8.59333 12.1 9.23333 11.9533 9.78 11.66C10.34 11.3533 10.78 10.9333 11.1 10.4C11.42 9.85333 11.58 9.23333 11.58 8.54C11.58 7.83333 11.42 7.22 11.1 6.7C10.7933 6.16667 10.36 5.75333 9.8 5.46C9.24 5.15333 8.59333 5 7.86 5H3.98V12.1ZM15.6753 19V4.1H24.8753V5H16.6753V11.08H24.4753V11.98H16.6753V18.1H24.8753V19H15.6753ZM26.4205 19L31.9405 4.1H32.9005L38.4205 19H37.3205L35.8805 15.06H28.9605L27.5205 19H26.4205ZM29.2805 14.16H35.5605L32.1805 4.92H32.6605L29.2805 14.16ZM46.8461 19.24C45.8328 19.24 44.8994 19.0533 44.0461 18.68C43.1928 18.2933 42.4461 17.7533 41.8061 17.06C41.1661 16.3667 40.6661 15.5533 40.3061 14.62C39.9594 13.6867 39.7861 12.66 39.7861 11.54C39.7861 10.4333 39.9594 9.41333 40.3061 8.48C40.6661 7.53333 41.1661 6.72 41.8061 6.04C42.4461 5.34667 43.1928 4.81333 44.0461 4.44C44.8994 4.05333 45.8328 3.86 46.8461 3.86C47.8328 3.86 48.7194 4.04667 49.5061 4.42C50.2928 4.78 50.9594 5.24 51.5061 5.8C52.0528 6.34667 52.4461 6.90667 52.6861 7.48L51.7461 7.9C51.3061 6.96667 50.6594 6.22 49.8061 5.66C48.9661 5.1 47.9794 4.82 46.8461 4.82C45.6594 4.82 44.6061 5.10667 43.6861 5.68C42.7794 6.24 42.0661 7.02667 41.5461 8.04C41.0394 9.04 40.7861 10.2067 40.7861 11.54C40.7861 12.8733 41.0394 14.0467 41.5461 15.06C42.0661 16.0733 42.7794 16.8667 43.6861 17.44C44.6061 18 45.6594 18.28 46.8461 18.28C47.9794 18.28 48.9661 18 49.8061 17.44C50.6594 16.88 51.3061 16.1333 51.7461 15.2L52.6861 15.62C52.4461 16.1933 52.0528 16.76 51.5061 17.32C50.9594 17.8667 50.2928 18.3267 49.5061 18.7C48.7194 19.06 47.8328 19.24 46.8461 19.24ZM58.6678 19V5H54.4478V4.1H63.8478V5H59.6678V19H58.6678Z" fill="white"/>
</svg>